<svg xmlns="http://www.w3.org/2000/svg" viewBox="0 0 1300 600" role="img" aria-label="Ghid dimensiuni – Bară hexagonală"><g transform="translate(266.04 301.45) scale(1.33)"><defs><radialGradient id="sh"><stop offset="0" stop-color="#101418" stop-opacity="0.18"/><stop offset="1" stop-color="#101418" stop-opacity="0"/></radialGradient></defs><ellipse cx="302.25" cy="17.84" rx="380" ry="46" fill="url(#sh)"/><polygon points="27.02,65.21 54.04,26.42 658.54,-109.98 631.52,-71.19" fill="rgb(154,155,156)" stroke="#6f747a" stroke-width="0.75" stroke-linejoin="round"/><polygon points="27.02,-38.79 -27.02,-65.21 577.48,-201.61 631.52,-175.19" fill="rgb(219,221,222)" stroke="#6f747a" stroke-width="0.75" stroke-linejoin="round"/><polygon points="54.04,26.42 27.02,-38.79 631.52,-175.19 658.54,-109.98" fill="rgb(157,158,159)" stroke="#6f747a" stroke-width="0.75" stroke-linejoin="round"/><path d="M54.04,26.42L27.02,-38.79L-27.02,-65.21L-54.04,-26.42L-27.02,38.79L27.02,65.21Z" fill-rule="evenodd" fill="rgb(202,204,205)" stroke="#6f747a" stroke-width="0.75" stroke-linejoin="round"/><line x1="-12" y1="-52" x2="-138" y2="-52" stroke="#1a1a1a" stroke-width="0.9"/><line x1="-12" y1="52" x2="-138" y2="52" stroke="#1a1a1a" stroke-width="0.9"/><line x1="-128" y1="-52" x2="-128" y2="52" stroke="#1a1a1a" stroke-width="1.21"/><polygon points="-128,-52 -124.1,-39 -131.9,-39" fill="#1a1a1a"/><polygon points="-128,52 -131.9,39 -124.1,39" fill="#1a1a1a"/><text x="-92" y="0" font-family="Arial, Helvetica, sans-serif" font-size="30.15" fill="#1a1a1a" text-anchor="middle" dominant-baseline="central">d</text><line x1="59.25" y1="89.23" x2="112.38" y2="199.43" stroke="#1a1a1a" stroke-width="0.9"/><line x1="663.75" y1="-47.17" x2="716.88" y2="63.03" stroke="#1a1a1a" stroke-width="0.9"/><line x1="108.04" y1="190.42" x2="712.54" y2="54.02" stroke="#1a1a1a" stroke-width="1.21"/><polygon points="108.04,190.42 119.86,183.75 121.58,191.36" fill="#1a1a1a"/><polygon points="712.54,54.02 700.72,60.69 699,53.08" fill="#1a1a1a"/><text x="437.76" y="75.02" font-family="Arial, Helvetica, sans-serif" font-size="30.15" fill="#1a1a1a" text-anchor="middle" dominant-baseline="central">l</text></g></svg>