<svg xmlns="http://www.w3.org/2000/svg" viewBox="-124.6 -227.6 836 303.68" role="img" aria-label="Desen tehnic – Profil U"><defs><radialGradient id="sh"><stop offset="0" stop-color="#101418" stop-opacity="0.18"/><stop offset="1" stop-color="#101418" stop-opacity="0"/></radialGradient></defs><ellipse cx="293.4" cy="2.24" rx="400" ry="50" fill="url(#sh)"/><polygon points="13.5,-8.4 13.5,-97.4 481.5,-203 481.5,-114" fill="rgb(154,155,156)" stroke="#6f747a" stroke-width="1" stroke-linejoin="round"/><polygon points="13.5,-97.4 0,-104 468,-209.6 481.5,-203" fill="rgb(219,221,222)" stroke="#6f747a" stroke-width="1" stroke-linejoin="round"/><polygon points="105.3,36.48 13.5,-8.4 481.5,-114 573.3,-69.12" fill="rgb(219,221,222)" stroke="#6f747a" stroke-width="1" stroke-linejoin="round"/><polygon points="118.8,58.08 118.8,-45.92 586.8,-151.52 586.8,-47.52" fill="rgb(154,155,156)" stroke="#6f747a" stroke-width="1" stroke-linejoin="round"/><polygon points="118.8,-45.92 105.3,-52.52 573.3,-158.12 586.8,-151.52" fill="rgb(219,221,222)" stroke="#6f747a" stroke-width="1" stroke-linejoin="round"/><path d="M0,0L118.8,58.08L118.8,-45.92L105.3,-52.52L105.3,36.48L13.5,-8.4L13.5,-97.4L0,-104Z" fill-rule="evenodd" fill="rgb(202,204,205)" stroke="#6f747a" stroke-width="1" stroke-linejoin="round"/></svg>